<svg width="208" height="196" viewBox="0 0 208 196" fill="none" xmlns="http://www.w3.org/2000/svg">
<rect width="208" height="196" fill="white"/>
<path d="M53.9443 128.025C52.9192 128.025 52.122 127.399 51.5525 126.146C51.0399 124.893 50.7837 123.498 50.7837 121.96C50.7837 119.739 51.0399 116.123 51.5525 111.111L55.9944 67.6313H62.8283C64.6506 67.6313 65.6472 68.3716 65.818 69.8523C65.9889 71.276 65.875 73.7248 65.4764 77.1986L61.5469 113.418C61.433 114.614 61.3761 115.81 61.3761 117.006C61.3761 118.201 61.4615 119.397 61.6323 120.593L79.9982 116.322C80.6246 116.208 81.1087 116.123 81.4504 116.066C81.7921 115.952 82.0483 115.895 82.2192 115.895C82.9026 115.895 83.2443 116.294 83.2443 117.091C83.2443 118.515 82.988 119.995 82.4755 121.533C82.0199 123.071 81.365 124.38 80.5107 125.462C79.6565 126.487 78.603 127 77.3501 127H74.7874C70.5163 127 67.014 127.085 64.2804 127.256C61.6039 127.427 59.4683 127.598 57.8737 127.769C56.2792 127.94 54.9694 128.025 53.9443 128.025ZM99.4912 128.025C98.5801 128.025 97.9821 127.598 97.6974 126.744C97.4126 125.89 97.2703 124.864 97.2703 123.669C97.2703 121.675 97.3842 119.568 97.6119 117.347C97.8397 115.069 98.0675 112.848 98.2953 110.684L102.994 67.6313L110.084 67.5459C112.419 67.4889 114.013 67.6597 114.867 68.0584C115.778 68.4001 116.376 69.1404 116.661 70.2794L129.304 116.493L124.862 116.322L144.594 73.3546C145.335 71.76 146.701 70.4217 148.695 69.3397C150.688 68.2008 153.108 67.6313 155.956 67.6313C157.095 67.6313 157.949 67.916 158.518 68.4855C159.145 68.998 159.373 70.0231 159.202 71.5607L153.393 127.683H146.559C145.819 127.683 145.249 127.228 144.851 126.317C144.452 125.405 144.253 124.124 144.253 122.473C144.253 120.138 144.31 117.604 144.424 114.87C144.594 112.136 144.822 109.517 145.107 107.011L148.268 80.0176L148.78 80.3592L137.59 104.448C135.312 109.346 133.461 113.247 132.037 116.151C130.614 118.999 129.446 121.134 128.535 122.558C127.681 123.982 126.94 124.921 126.314 125.377C125.688 125.776 125.033 125.975 124.349 125.975C123.609 125.975 122.982 125.833 122.47 125.548C122.014 125.206 121.644 124.523 121.359 123.498L108.631 79.9321L109.4 79.8467L107.008 101.971C106.496 106.47 106.268 110.058 106.325 112.734C106.382 115.411 106.553 117.49 106.838 118.97C107.179 120.394 107.492 121.504 107.777 122.302C108.062 123.099 108.204 123.839 108.204 124.523C108.204 125.149 107.863 125.69 107.179 126.146C106.496 126.544 105.642 126.886 104.617 127.171C103.592 127.456 102.595 127.655 101.627 127.769C100.716 127.94 100.004 128.025 99.4912 128.025Z" fill="black"/>
</svg>
